<?xml version="1.0" encoding="utf-8"?>
<!-- Generator: Adobe Illustrator 15.1.0, SVG Export Plug-In . SVG Version: 6.00 Build 0)  -->
<!DOCTYPE svg PUBLIC "-//W3C//DTD SVG 1.1//EN" "http://www.w3.org/Graphics/SVG/1.1/DTD/svg11.dtd">
<svg version="1.1" id="Layer_1" xmlns="http://www.w3.org/2000/svg" xmlns:xlink="http://www.w3.org/1999/xlink" x="0px" y="0px"
	 width="60px" height="60px" viewBox="0 0 60 60" enable-background="new 0 0 60 60" xml:space="preserve">
<g>
	<path d="M34.102,44.766l-8.555,14.883c-7.266-1.095-13.341-4.433-18.223-10.02C2.441,44.044,0,37.5,0,30
		c0-5.233,1.289-10.155,3.867-14.766l12.188,21.328c1.249,2.578,3.124,4.688,5.625,6.328c2.5,1.641,5.273,2.461,8.32,2.461
		C31.406,45.352,32.772,45.157,34.102,44.766z M15.117,26.133L6.562,11.25c2.812-3.516,6.25-6.27,10.312-8.262
		C20.937,0.996,25.312,0,30,0c5.391,0,10.371,1.329,14.941,3.984c4.57,2.657,8.183,6.251,10.84,10.781H31.289
		c-0.392-0.077-0.82-0.117-1.289-0.117c-3.516,0-6.661,1.075-9.434,3.223C17.792,20.021,15.976,22.774,15.117,26.133z
		 M22.324,37.676c-2.149-2.147-3.223-4.706-3.223-7.676c0-2.968,1.073-5.526,3.223-7.676c2.148-2.148,4.706-3.223,7.676-3.223
		c2.968,0,5.526,1.075,7.676,3.223c2.147,2.149,3.223,4.708,3.223,7.676c0,2.97-1.075,5.528-3.223,7.676
		c-2.149,2.149-4.708,3.223-7.676,3.223C27.03,40.898,24.472,39.825,22.324,37.676z M40.781,18.984h17.109
		C59.297,22.5,60,26.173,60,30c0,8.203-2.892,15.234-8.672,21.094C45.546,56.953,38.555,59.921,30.352,60l12.305-21.211
		c1.796-2.655,2.695-5.585,2.695-8.789C45.352,25.704,43.828,22.031,40.781,18.984z"/>
</g>
</svg>
