<?xml version="1.0" encoding="utf-8"?>
<!-- Generator: Adobe Illustrator 15.1.0, SVG Export Plug-In . SVG Version: 6.00 Build 0)  -->
<!DOCTYPE svg PUBLIC "-//W3C//DTD SVG 1.1//EN" "http://www.w3.org/Graphics/SVG/1.1/DTD/svg11.dtd">
<svg version="1.1" id="Layer_1" xmlns="http://www.w3.org/2000/svg" xmlns:xlink="http://www.w3.org/1999/xlink" x="0px" y="0px"
	 width="60px" height="53.411px" viewBox="0 0 60 53.411" enable-background="new 0 0 60 53.411" xml:space="preserve">
<g>
	<path d="M60,18.021c0,0.743-0.059,2.188-0.176,4.336c-0.118,2.149-0.372,4.259-0.762,6.328c-0.392,2.071-1.113,4.395-2.168,6.973
		c-1.056,2.578-2.344,4.903-3.868,6.973c-1.522,2.07-3.613,4.024-6.269,5.859c-2.657,1.836-5.665,3.146-9.023,3.926
		c-1.799,0.469-3.634,0.742-5.509,0.82c-0.078,0-0.233,0.038-0.468,0.117c-1.564,0.077-3.126,0.077-4.688,0
		c-9.688-0.78-17.071-5.546-22.148-14.297c-2.344-4.141-3.673-8.086-3.984-11.836c-0.234,1.095-0.392,2.032-0.469,2.812
		c-0.234-4.453,0.117-8.086,1.055-10.898C0.82,20.307,0.311,21.401,0,22.416c0.625-3.516,1.445-6.288,2.461-8.32
		c0.077-0.469,0.546-1.328,1.406-2.578c0-0.156,0-0.273,0-0.352c-0.157-2.187,0.059-4.16,0.645-5.918s1.073-2.851,1.465-3.281
		c0.39-0.429,0.703-0.762,0.938-0.996c0.077,1.875,1.055,3.673,2.93,5.391c0.469,0.079,0.897,0.117,1.289,0.117
		c1.952-0.39,3.984-0.352,6.094,0.117c1.249-1.562,3.164-2.617,5.742-3.164l2.227-0.117c-2.267,1.329-3.633,3.243-4.102,5.742
		c0.859,1.798,1.992,2.695,3.398,2.695c1.172,0,2.031,0,2.578,0c1.328,0,2.031,0.117,2.109,0.352v0.117v0.117
		c0.077,0.079,0.077,0.196,0,0.352v0.117v0.117c-0.079,0.782-0.352,1.368-0.82,1.758c-0.079,0-0.117,0.02-0.117,0.059
		c0,0.04-0.04,0.059-0.117,0.059c0,0.079-0.352,0.313-1.055,0.703c-0.938,0.626-1.681,1.133-2.227,1.523
		c-1.016,0.626-1.523,1.055-1.523,1.289v0.117h-0.117c0.234,0.469,0.39,1.055,0.469,1.758c0.156,0.703,0.194,1.133,0.117,1.289
		c0,0.392,0,0.743,0,1.055c-0.938-0.469-1.836-0.78-2.695-0.938c-1.095,0.469-1.719,0.978-1.875,1.523
		c-0.079,0.313-0.157,0.626-0.234,0.938c0,1.485,1.055,2.853,3.164,4.102c0.859,0.547,1.738,0.86,2.637,0.938
		c0.897,0.079,1.601,0.04,2.109-0.117c0.507-0.156,1.132-0.391,1.875-0.703c0.742-0.312,1.269-0.507,1.582-0.586
		c2.344-0.625,4.257-0.077,5.742,1.641c0.47,0.469,0.566,0.919,0.294,1.348c-0.274,0.431-0.686,0.567-1.231,0.41
		c-0.233,0.078-0.392,0.099-0.468,0.059c-0.079-0.038-0.255,0-0.528,0.117c-0.274,0.117-0.468,0.195-0.585,0.234
		c-0.118,0.04-0.313,0.157-0.586,0.352c-0.275,0.196-0.489,0.333-0.646,0.41c-0.157,0.078-0.409,0.254-0.762,0.527
		c-0.352,0.274-0.644,0.45-0.878,0.527c-0.938,0.703-2.285,1.212-4.043,1.523c-1.758,0.312-3.223,0.312-4.395,0
		c0.938,0.703,1.679,1.212,2.227,1.523c0.546,0.313,1.445,0.802,2.695,1.465c1.249,0.665,2.324,1.095,3.223,1.289
		c0.897,0.196,2.031,0.293,3.399,0.293c1.366,0,2.616-0.234,3.75-0.703c1.131-0.469,2.343-1.269,3.633-2.402
		c1.288-1.132,2.519-2.558,3.691-4.277c0.234-0.391,0.39-0.625,0.468-0.703c0.156,0-0.04,1.055-0.586,3.164
		c-0.234,1.095-0.312,1.641-0.234,1.641c1.328-0.938,2.245-2.734,2.754-5.391c0.508-2.655,0.566-5.233,0.176-7.734
		c0.938,0.392,1.601,1.133,1.992,2.227l0.235,0.234c0.468-1.483,0.741-3.417,0.82-5.801c0.076-2.382-0.157-4.354-0.703-5.918
		c1.014,0.313,1.951,1.329,2.812,3.047c-0.234-1.249-0.587-2.402-1.055-3.457c-0.47-1.055-0.996-1.952-1.583-2.695
		c-0.585-0.742-1.212-1.445-1.875-2.109c-0.664-0.663-1.347-1.21-2.05-1.641c-0.704-0.429-1.388-0.82-2.051-1.172
		c-0.665-0.352-1.29-0.625-1.875-0.82c-0.587-0.194-1.114-0.352-1.582-0.469c-0.47-0.117-0.821-0.194-1.055-0.234
		c-0.234-0.039-0.313-0.059-0.234-0.059c1.951-0.546,3.943-0.82,5.977-0.82C45,2.924,44.55,2.573,43.887,2.26
		c-0.665-0.312-1.389-0.586-2.169-0.82c-0.781-0.234-1.543-0.429-2.284-0.586c-0.744-0.156-1.623-0.352-2.637-0.586H36.68h0.233
		c2.188-0.625,5.625-0.156,10.312,1.406c1.718,0.547,3.282,1.543,4.688,2.988c1.407,1.446,2.286,2.52,2.638,3.223
		c0.351,0.703,0.604,1.289,0.762,1.758V9.174c0.076-0.39,0.018-0.996-0.176-1.816c-0.196-0.82-0.489-1.699-0.879-2.637
		c0.076,0,0.193,0.059,0.352,0.176c0.155,0.117,0.448,0.547,0.879,1.289c0.429,0.743,0.917,1.816,1.464,3.223
		c0.859,2.109,1.601,5.899,2.228,11.367l0.703-4.453C59.959,16.714,60,17.28,60,18.021z"/>
</g>
</svg>
