<?xml version="1.0" encoding="utf-8"?>
<!-- Generator: Adobe Illustrator 15.1.0, SVG Export Plug-In . SVG Version: 6.00 Build 0)  -->
<!DOCTYPE svg PUBLIC "-//W3C//DTD SVG 1.1//EN" "http://www.w3.org/Graphics/SVG/1.1/DTD/svg11.dtd">
<svg version="1.1" id="Layer_1" xmlns="http://www.w3.org/2000/svg" xmlns:xlink="http://www.w3.org/1999/xlink" x="0px" y="0px"
	 width="56.953px" height="55.224px" viewBox="0 0 56.953 55.224" enable-background="new 0 0 56.953 55.224" xml:space="preserve">
<g>
	<path d="M20.391,31.926v0.116c0,1.875,0.429,3.673,1.289,5.392c1.015,1.797,2.402,3.222,4.16,4.276s3.71,1.582,5.859,1.582
		c2.148,0,4.102-0.527,5.859-1.582s3.144-2.479,4.16-4.276h13.945c-1.798,5.079-4.922,9.238-9.375,12.479
		c-4.453,3.242-9.454,4.863-15,4.863c-4.142,0-8.047-0.898-11.719-2.695c-8.203,3.985-14.103,4.179-17.695,0.586
		C0.625,51.496,0,49.543,0,46.809s0.527-5.781,1.582-9.142c1.055-3.357,2.812-7.05,5.273-11.074
		c2.461-4.023,5.371-7.676,8.73-10.957c1.952-2.031,3.203-3.281,3.75-3.75c-4.845,2.344-9.219,5.977-13.125,10.898
		c1.406-5.702,4.433-10.39,9.082-14.062c4.647-3.671,9.979-5.508,15.996-5.508c0.625,0,1.249,0.04,1.875,0.117
		c4.375-1.952,8.358-3.047,11.953-3.281c3.593-0.234,6.132,0.352,7.617,1.758c2.968,3.047,3.241,7.813,0.82,14.297
		c2.265,3.984,3.398,8.282,3.398,12.891c0,1.094-0.04,2.071-0.117,2.93H43.008H20.391z M17.93,51.145
		c-5.235-3.203-8.906-7.694-11.016-13.478C3.398,44.543,2.93,49.27,5.508,51.847C7.773,54.112,11.913,53.878,17.93,51.145z
		 M42.07,25.128c-0.157-2.812-1.289-5.215-3.398-7.207s-4.591-2.988-7.441-2.988c-2.853,0-5.332,0.996-7.441,2.988
		s-3.243,4.395-3.398,7.207H42.07z M40.781,5.089c4.999,2.032,8.983,5.313,11.953,9.844c1.797-4.843,1.718-8.242-0.234-10.195
		C50.391,2.551,46.483,2.668,40.781,5.089z"/>
</g>
</svg>
