<?xml version="1.0" encoding="utf-8"?>
<!-- Generator: Adobe Illustrator 15.1.0, SVG Export Plug-In . SVG Version: 6.00 Build 0)  -->
<!DOCTYPE svg PUBLIC "-//W3C//DTD SVG 1.1//EN" "http://www.w3.org/Graphics/SVG/1.1/DTD/svg11.dtd">
<svg version="1.1" id="Layer_1" xmlns="http://www.w3.org/2000/svg" xmlns:xlink="http://www.w3.org/1999/xlink" x="0px" y="0px"
	 width="56.484px" height="60px" viewBox="0 0 56.484 60" enable-background="new 0 0 56.484 60" xml:space="preserve">
<g>
	<path d="M48.457,8.203c5.351,5.469,8.027,12.656,8.027,21.562c0,8.126-2.677,15.196-8.027,21.211
		C43.104,56.991,36.328,60,28.125,60c-8.126,0-14.844-3.009-20.156-9.023C2.655,44.962,0,37.892,0,29.766
		c0-8.906,2.617-16.093,7.852-21.562C13.085,2.735,19.844,0,28.125,0C36.328,0,43.104,2.735,48.457,8.203z M38.203,20.742
		c-0.234-2.421-0.703-4.785-1.406-7.09c-0.703-2.304-1.778-4.082-3.223-5.332c-1.446-1.249-3.263-1.875-5.449-1.875
		c-2.188,0-3.984,0.606-5.391,1.816c-1.406,1.212-2.442,2.988-3.105,5.332c-0.664,2.344-1.113,4.688-1.348,7.031
		s-0.352,5.196-0.352,8.555c0,2.109,0.039,3.887,0.117,5.332c0.077,1.446,0.215,3.204,0.41,5.273
		c0.194,2.07,0.508,3.809,0.938,5.215c0.429,1.406,1.015,2.794,1.758,4.16c0.741,1.368,1.699,2.402,2.871,3.105
		s2.538,1.055,4.102,1.055c1.562,0,2.948-0.352,4.16-1.055c1.21-0.703,2.187-1.737,2.93-3.105c0.741-1.366,1.348-2.754,1.816-4.16
		s0.82-3.145,1.055-5.215c0.234-2.069,0.37-3.848,0.41-5.332c0.038-1.483,0.059-3.241,0.059-5.273
		C38.555,25.977,38.438,23.165,38.203,20.742z"/>
</g>
</svg>
