<?xml version="1.0" encoding="utf-8"?>
<!-- Generator: Adobe Illustrator 15.1.0, SVG Export Plug-In . SVG Version: 6.00 Build 0)  -->
<!DOCTYPE svg PUBLIC "-//W3C//DTD SVG 1.1//EN" "http://www.w3.org/Graphics/SVG/1.1/DTD/svg11.dtd">
<svg version="1.1" id="Layer_1" xmlns="http://www.w3.org/2000/svg" xmlns:xlink="http://www.w3.org/1999/xlink" x="0px" y="0px"
	 width="56.25px" height="60px" viewBox="0 0 56.25 60" enable-background="new 0 0 56.25 60" xml:space="preserve">
<g>
	<path d="M47.988,12.012c5.508,5.508,8.262,12.129,8.262,19.863s-2.754,14.355-8.262,19.863S35.859,60,28.125,60
		S13.77,57.246,8.262,51.738S0,39.609,0,31.875c0-6.328,1.913-11.992,5.742-16.992c3.826-4.999,8.71-8.359,14.648-10.078V4.688
		c-1.017-0.234-1.603-0.78-1.758-1.641c-0.158-0.625,0.018-1.23,0.527-1.816c0.507-0.586,1.189-0.956,2.051-1.113
		C21.521,0.04,21.835,0,22.148,0c1.562,0,2.461,0.586,2.695,1.758c0.234,0.782-0.079,1.485-0.938,2.109
		c0,0.079,0.038,0.157,0.117,0.234c1.327-0.234,2.695-0.352,4.102-0.352C35.859,3.75,42.48,6.504,47.988,12.012z M49.453,31.875
		c0-0.938-0.079-1.875-0.234-2.812l-4.688-0.703l4.102-2.461c-1.017-3.516-2.812-6.562-5.391-9.141
		c-4.219-4.14-9.258-6.211-15.117-6.211c-0.938,0-1.875,0.079-2.812,0.234l-0.703,4.688l-2.461-4.102
		c-3.516,1.016-6.562,2.812-9.141,5.391c-4.143,4.219-6.211,9.258-6.211,15.117c0,0.938,0.076,1.875,0.234,2.812l4.688,0.703
		l-4.102,2.461c1.014,3.516,2.812,6.562,5.391,9.141c4.219,4.142,9.258,6.211,15.117,6.211c0.938,0,1.875-0.077,2.812-0.234
		l0.703-4.688l2.461,4.102c3.516-1.015,6.562-2.812,9.141-5.391C47.382,42.773,49.453,37.734,49.453,31.875z M33.984,28.828v0.117
		l7.031,0.234l-6.328,2.93c0,0.86-0.196,1.719-0.586,2.578l2.695,2.812l-3.75-1.289c-0.548,0.626-1.213,1.133-1.992,1.523
		l-0.234,7.031l-2.93-6.328c-1.017-0.077-1.954-0.312-2.812-0.703l-11.484,8.672l8.672-11.484v-0.117l-7.031-0.234l6.328-2.93
		c0-0.859,0.193-1.718,0.586-2.578l-2.695-2.812l3.75,1.289c0.545-0.625,1.21-1.132,1.992-1.523l0.234-7.031l2.93,6.328
		c1.014,0.079,1.951,0.313,2.812,0.703l11.484-8.672L33.984,28.828z M20.625,3.75c0.311-0.469,0.721-0.762,1.23-0.879
		c0.507-0.117,0.996-0.019,1.465,0.293c0.545-0.39,0.779-0.82,0.703-1.289c-0.158-0.625-0.782-0.938-1.875-0.938
		c-0.234,0-0.469,0.04-0.703,0.117c-0.627,0.079-1.134,0.313-1.523,0.703c-0.393,0.392-0.548,0.743-0.469,1.055
		C19.608,3.281,19.998,3.594,20.625,3.75z M23.438,28.828c-0.861,1.329-1.134,2.735-0.82,4.219c0.076,0.313,0.193,0.664,0.352,1.055
		l3.164-4.219l4.219-3.164c-0.469-0.234-0.979-0.39-1.523-0.469c-0.234,0-0.469,0-0.703,0c-0.393,0-0.782,0.04-1.172,0.117
		C25.468,26.68,24.296,27.5,23.438,28.828z M33.281,34.102c0.469-1.093,0.586-2.227,0.352-3.398
		c-0.079-0.312-0.196-0.663-0.352-1.055l-3.164,4.219l-4.219,3.164c0.469,0.234,0.976,0.392,1.523,0.469c0.234,0,0.469,0,0.703,0
		c0.39,0,0.779-0.039,1.172-0.117c0.624-0.156,1.21-0.39,1.758-0.703C32.068,36.056,32.812,35.196,33.281,34.102z"/>
</g>
</svg>
